<svg id="Layer_1" data-name="Layer 1" xmlns="http://www.w3.org/2000/svg" viewBox="0 0 1024 1024"><defs><style>.cls-1{fill:#6d5fbd;}.cls-2{fill:#553770;}.cls-3{fill:#a1b9ff;}</style></defs><path class="cls-1" d="M512,974A462.14,462.14,0,0,1,332.18,86.29,462.13,462.13,0,0,1,691.82,937.71,459.06,459.06,0,0,1,512,974Z"/><path class="cls-2" d="M512,100A412.13,412.13,0,0,1,672.34,891.66,412.13,412.13,0,0,1,351.66,132.34,409.3,409.3,0,0,1,512,100M512,0C229.23,0,0,229.23,0,512s229.23,512,512,512,512-229.23,512-512S794.77,0,512,0Z"/><path class="cls-3" d="M286,403.33h70.72L406,562.13l48.65-158.8h68.67L442,624H368.64Z"/><path class="cls-3" d="M713.55,624H531a115.76,115.76,0,0,1,19-51.25q15.9-24,59.67-56.68,26.73-20,34.2-30.4T651.42,466a23.13,23.13,0,0,0-7.4-17.24q-7.38-7.14-18.59-7.15-11.65,0-19,7.38t-9.94,26l-60.93-5q3.59-25.89,13.14-40.41t27-22.28q17.4-7.76,48.17-7.75,32.1,0,50,7.37a60.9,60.9,0,0,1,28.07,22.66,60.17,60.17,0,0,1,10.24,34.24q0,20.18-11.73,38.54t-42.64,40.34q-18.37,12.79-24.57,17.91T618.56,574h95Z"/></svg>